<svg width="655" height="364" viewBox="0 0 655 364" fill="none" xmlns="http://www.w3.org/2000/svg">
<path d="M628.329 139.709L628.303 139.592C628.088 138.616 627.837 137.478 626.662 137.264C625.439 137.042 624.328 138.042 623.661 138.82C621.55 141.487 621.439 141.599 619.661 138.375C618.816 136.839 618.183 135.209 617.552 133.583C616.357 130.504 615.166 127.438 612.548 125.038C611.104 123.704 612.548 121.37 614.549 120.926C616.327 120.592 616.216 119.814 615.66 118.814C615.551 118.595 615.414 118.377 615.276 118.155C614.852 117.474 614.409 116.762 614.66 115.924C614.786 115.545 614.721 115.119 614.658 114.704C614.554 114.025 614.456 113.38 615.215 113.034C616.081 112.602 616.338 113.198 616.594 113.792C616.732 114.113 616.87 114.434 617.105 114.59C617.248 114.672 617.391 114.765 617.536 114.859C618.176 115.276 618.845 115.711 619.661 115.257C620.772 114.479 619.994 113.479 619.438 112.812C617.865 110.505 618.173 108.098 618.492 105.593C618.511 105.443 618.531 105.293 618.549 105.143C619.216 101.142 621.994 99.0301 626.328 99.6969C627.106 99.8081 627.884 99.5858 628.329 99.0301C628.996 98.1409 628.329 97.474 627.662 96.9183C626.217 95.6957 625.884 94.1397 625.662 92.2502C625.439 89.9162 624.884 87.471 624.328 85.1369C624.086 84.0972 623.746 83.0791 623.406 82.0624C622.657 79.8185 621.911 77.5815 622.217 75.1339C622.57 72.2223 622.152 69.3108 621.743 66.4548C621.636 65.713 621.53 64.975 621.439 64.2417C620.994 61.0184 621.661 58.7955 623.884 56.7949C624.141 56.5375 624.501 56.3081 624.863 56.0769C625.753 55.5095 626.659 54.9318 626.106 53.9052C625.973 53.6393 625.857 53.354 625.738 53.0647L625.738 53.0632L625.737 53.0613C625.164 51.6585 624.553 50.1644 621.883 50.3485C621.232 50.3811 620.542 50.4709 619.843 50.5621C618.155 50.782 616.407 51.0097 614.993 50.4597C610.881 48.7925 607.77 49.9039 604.658 52.4603C604.359 52.6932 604.109 53.0258 603.858 53.3596C603.272 54.1406 602.681 54.9281 601.435 54.4609C601.935 53.4606 602.623 52.6479 603.311 51.8352C603.54 51.5642 603.769 51.2933 603.991 51.0154C606.658 47.5699 606.436 44.0133 604.325 40.3455C602.88 37.9003 601.213 36.0108 597.879 37.2334C596.212 37.7891 595.99 36.3443 595.99 35.1217C595.99 33.5581 596.66 34.0052 597.234 34.3879C597.435 34.522 597.624 34.6482 597.768 34.6771C600.606 35.0046 602.05 35.1713 602.851 34.5319C603.681 33.8694 603.82 32.3416 604.102 29.231C604.102 29.0087 604.102 28.6752 604.214 28.5641C605.214 26.6746 606.325 24.674 608.992 26.0078C611.104 27.0081 612.326 26.0078 613.326 24.2294C614.215 22.6734 615.327 21.6731 617.216 21.1174C619.327 20.5617 620.105 19.2279 620.216 16.5604C620.296 14.2561 619.126 14.1104 618.005 13.971C617.559 13.9154 617.12 13.8608 616.771 13.6707C616.365 13.4357 615.96 13.1678 615.548 12.8963C613.819 11.7553 611.993 10.55 609.659 11.4478C609.561 11.4965 609.464 11.5239 609.376 11.5486C609.263 11.5803 609.166 11.6076 609.103 11.6701C609.159 11.559 609.214 11.4202 609.27 11.2814C609.325 11.1424 609.381 11.0032 609.437 10.892C610.881 9.22486 611.77 7.3354 610.881 5.1125C610.631 4.48633 610.051 4.06399 609.46 3.63347C608.478 2.91777 607.465 2.17935 607.881 0.444407C607.992 0.222117 606.992 -0.111318 606.659 0.222117C605.363 2.02692 603.316 2.90685 601.256 3.79253C598.368 5.03402 595.453 6.28681 594.545 10.114C594.416 10.6319 594.186 11.1499 593.953 11.6743C593.586 12.5001 593.212 13.3428 593.212 14.2264C593.212 15.1156 593.212 16.0047 591.989 15.7824C588.359 15.1896 585.815 17.0668 583.272 18.9439C582 19.8824 580.728 20.821 579.32 21.4508C577.274 22.3866 575.381 23.5378 573.48 24.6939C571.768 25.7348 570.05 26.7797 568.207 27.6749C563.54 29.8978 559.317 33.0099 556.65 37.1223C555.88 38.2612 555.18 39.4305 554.484 40.5935C552.871 43.2892 551.278 45.9515 548.871 48.1256C548.669 48.3048 548.45 48.4704 548.231 48.6353C547.365 49.2883 546.516 49.9291 546.87 51.3488C548.018 50.9497 548.493 51.827 548.991 52.7444C549.601 53.8708 550.245 55.0577 552.205 54.0163C553.316 53.4606 556.317 53.1272 556.872 56.0169C557.539 58.9067 555.983 58.7956 553.872 58.5733C553.222 58.465 552.468 59.0945 551.813 59.6408L551.76 59.6847C550.982 60.2404 550.316 60.3516 549.538 59.7959C548.568 59.1494 548.956 58.6073 549.487 57.8659L549.538 57.7952C550.316 56.9061 549.871 56.2392 549.093 55.4612C547.982 54.3498 547.204 54.3497 545.87 55.3501C544.203 56.5726 543.314 57.4618 544.426 59.6847C545.648 62.0188 543.203 68.6875 540.647 69.0209C538.896 69.2711 538.396 70.2099 537.88 71.1796C537.709 71.5021 537.535 71.8279 537.313 72.133C536.404 73.3458 535.77 74.8344 535.161 76.2644C535.101 76.4067 535.04 76.549 534.98 76.6899C533.868 79.3574 529.979 80.4688 528.645 78.8017C525.089 74.3559 521.088 73.9113 516.754 77.6902C513.754 80.2465 511.309 83.2475 509.975 87.2487C509.309 89.3604 507.975 92.2502 504.419 90.1384C503.601 89.6477 502.663 89.819 501.737 89.988C501.405 90.0487 501.074 90.1091 500.752 90.1384C500.326 90.1712 499.842 90.339 499.346 90.5112C498.159 90.9233 496.901 91.36 496.195 90.0273C494.417 86.4707 491.861 87.9155 490.083 89.027C487.416 90.8053 484.527 91.8056 481.526 92.4725C479.657 92.9151 478.006 93.8801 476.351 94.8474C474.266 96.066 472.175 97.2881 469.635 97.474C468.635 97.5852 467.857 98.6966 469.302 99.3635C471.659 100.435 470.607 101.197 469.433 102.047L469.302 102.142C466.524 104.143 467.635 105.81 469.746 107.366C470.114 107.652 470.541 107.833 470.968 108.013C471.703 108.324 472.436 108.634 472.858 109.478C472.898 109.598 473.025 109.689 473.155 109.783C473.386 109.949 473.627 110.123 473.414 110.478C473.08 110.923 472.747 111.145 472.191 110.923C470.666 110.026 469.938 110.794 469.071 111.708C468.864 111.926 468.649 112.153 468.413 112.367C468.125 112.629 467.855 112.959 467.576 113.3C466.672 114.406 465.673 115.63 463.634 115.035C462.802 114.757 462.354 115.635 461.971 116.385L461.971 116.386L461.97 116.388C461.893 116.538 461.819 116.683 461.745 116.813C460.546 118.884 459.935 119.939 459.087 120.189C458.205 120.449 457.066 119.838 454.744 118.592C454.59 118.515 454.463 118.345 454.335 118.175C454.093 117.851 453.847 117.522 453.41 117.814C452.743 118.258 452.855 118.925 453.077 119.703C453.556 121.717 453.953 123.813 454.338 125.849C454.399 126.173 454.46 126.496 454.522 126.816C454.532 126.87 454.544 126.924 454.556 126.977C454.665 127.476 454.769 127.949 453.966 128.15C451.966 128.817 445.742 126.483 445.742 124.482C445.685 122.29 444.609 120.607 443.542 118.936C442.552 117.387 441.569 115.848 441.408 113.923C441.186 111.812 435.518 109.7 433.629 110.478L433.497 110.533C430.87 111.629 428.143 112.766 425.739 110.033C425.517 109.811 424.961 109.7 424.961 110.145C424.961 110.934 424.54 111.668 424.117 112.406C423.349 113.744 422.575 115.094 424.294 116.813C424.85 117.369 425.85 119.036 424.516 119.814C422.198 121.253 419.65 121.37 417.079 121.487C416.075 121.533 415.068 121.579 414.07 121.704C413.07 121.815 412.292 121.37 412.737 120.036C413.181 118.925 411.959 118.369 411.403 118.48C410.219 118.725 408.991 118.7 407.761 118.675C405.643 118.632 403.522 118.589 401.624 119.925C399.957 121.148 398.29 122.148 397.067 119.258C396.956 119.036 395.845 117.258 395.511 119.258C395.489 119.417 395.48 119.567 395.472 119.705C395.44 120.245 395.418 120.615 394.622 120.703C393.622 120.814 392.733 120.481 392.066 119.814C391.906 119.654 391.962 119.293 392.017 118.942C392.113 118.318 392.204 117.729 391.066 118.369C390.66 118.573 390.16 118.642 389.653 118.712C388.496 118.872 387.297 119.037 387.066 120.814L387.055 120.906C386.949 121.856 386.878 122.489 387.955 122.704C388.076 122.744 388.227 122.682 388.381 122.618C388.649 122.506 388.925 122.391 389.066 122.815C389.177 123.037 388.51 123.815 388.288 123.815C387.471 123.667 387.001 124.164 386.58 124.61C386.372 124.83 386.175 125.039 385.954 125.149C385.289 125.44 384.748 125.934 384.215 126.42C383.324 127.233 382.456 128.025 381.065 127.817C380.883 127.771 380.646 127.8 380.422 127.827C380.096 127.867 379.797 127.903 379.731 127.705C379.668 127.643 379.889 127.438 380.133 127.212C380.321 127.038 380.523 126.85 380.62 126.705C381.157 125.214 382.269 124.267 383.408 123.298C384.392 122.46 385.396 121.606 386.065 120.37C387.732 117.147 389.733 114.035 392.511 111.367C395.178 108.922 395.845 105.699 395.289 102.253C394.734 98.8078 392.622 95.5846 389.955 94.4731C386.843 93.1394 382.732 92.4725 379.62 95.8068C379.398 96.1403 378.731 96.3626 378.397 96.2514C377.62 96.0291 377.842 95.3623 378.175 94.8065C379.953 91.8056 378.509 91.4722 375.841 91.6945C375.436 91.7756 374.971 91.5013 374.49 91.2175C374.312 91.1126 374.132 91.0065 373.952 90.9165C374.031 90.8118 374.109 90.6947 374.189 90.5755C374.449 90.1886 374.724 89.7788 375.064 89.6939C378.064 88.8047 376.397 88.1378 374.952 87.8044C374.358 87.646 373.793 87.2618 373.235 86.8831C372.228 86.1991 371.247 85.5329 370.174 86.2484C367.284 88.0267 364.284 90.8053 364.395 94.1397C364.395 98.0297 362.95 98.1409 360.172 97.6963C359.394 97.5852 358.505 97.8075 359.061 98.6966C360.329 100.86 359.144 100.97 357.993 101.078C357.428 101.131 356.872 101.183 356.616 101.475C355.949 102.253 354.949 100.92 355.505 99.6969C355.616 99.5858 355.282 99.0301 355.06 98.9189C354.282 98.4743 345.059 101.031 345.17 101.698C345.63 103.694 344.605 103.675 343.598 103.655C343.147 103.646 342.7 103.638 342.391 103.809C341.725 104.143 340.947 104.254 340.169 104.254C338.287 104.254 336.691 105.086 335.092 105.921C333.386 106.811 331.676 107.703 329.611 107.588C329.15 107.588 328.636 107.854 328.105 108.128C327.869 108.251 327.629 108.375 327.389 108.477C322.944 110.033 322.499 112.256 325.944 115.368C327.722 117.036 327.944 117.702 326.722 117.925C325.907 118.055 325.12 118.272 324.337 118.488C322.451 119.007 320.586 119.521 318.387 118.814C316.693 118.343 314.919 117.952 313.201 117.574L313.196 117.573L313.192 117.572L312.275 117.369C310.164 116.924 308.163 116.924 308.052 120.036C308.03 120.415 308.026 120.797 308.021 121.181C308.003 122.713 307.985 124.26 306.83 125.594C306.274 126.149 306.83 127.483 307.497 127.705C309.148 128.295 309.516 129.699 309.88 131.086C310.202 132.312 310.52 133.526 311.72 134.152C312.053 134.374 311.942 134.93 311.608 134.819C311.003 134.559 310.228 134.738 309.489 134.908C308.329 135.175 307.256 135.423 307.052 133.93C306.54 130.603 304.654 128.454 302.699 126.228C302.107 125.554 301.508 124.872 300.94 124.149C299.94 122.926 298.94 122.926 297.939 123.482C297.802 123.58 297.637 123.675 297.466 123.773C296.67 124.229 295.75 124.757 296.939 126.038C297.495 126.705 297.161 127.594 296.606 127.817C296.206 128.083 296.046 127.75 295.886 127.416C295.779 127.194 295.672 126.972 295.495 126.927C293.605 126.038 292.272 126.594 291.938 128.706C291.605 130.484 291.938 132.151 293.494 133.485C294.05 133.93 294.828 135.152 293.494 135.263C292.272 135.263 290.938 134.263 289.938 133.485C289.301 132.927 289.52 132.256 289.736 131.593C289.822 131.33 289.907 131.07 289.938 130.818C290.213 129.17 291.013 127.633 291.812 126.099C293.277 123.288 294.736 120.487 292.939 117.036C292.903 116.929 292.924 116.777 292.948 116.608C292.998 116.25 293.059 115.817 292.605 115.591C292.272 115.48 291.605 115.48 291.272 115.702C290.654 116.143 290.877 116.654 291.106 117.18C291.166 117.317 291.226 117.454 291.272 117.591C292.605 122.037 291.494 124.149 287.271 125.594C284.604 126.483 282.381 127.705 283.159 131.484C283.604 133.707 283.826 137.042 282.492 138.264C280.971 139.677 279.662 141.196 278.774 142.821H278.381C277.603 144.488 277.158 146.044 277.158 147.934C277.158 148.259 276.829 148.642 276.526 148.994C276.104 149.485 275.733 149.916 276.38 150.046C277.068 150.229 277.756 150.716 278.398 151.169C279.31 151.814 280.127 152.392 280.714 151.935C282.241 150.767 282.897 151.487 283.562 152.217C283.719 152.39 283.878 152.564 284.048 152.713C284.382 153.047 284.826 154.047 284.715 154.158C284.366 154.507 284.104 154.286 283.821 154.046C283.653 153.904 283.477 153.755 283.27 153.713C278.047 152.713 275.825 154.269 275.047 159.493C274.824 161.271 274.269 163.161 272.157 163.939C271.379 164.272 270.268 164.939 270.046 165.606C269.086 168.273 266.795 168.79 264.45 169.318L264.156 169.385C264.063 169.403 263.97 169.42 263.876 169.437C263.821 169.446 263.765 169.456 263.71 169.465C262.734 169.633 261.763 169.799 261.378 171.052C260.933 172.386 259.822 172.497 259.266 171.83C258.155 170.496 257.488 168.829 259.6 167.829C260.044 167.607 260.377 167.384 260.711 167.051C261.005 166.803 261.299 166.556 261.592 166.309L261.613 166.292C265.532 162.999 269.41 159.74 272.713 155.714C273.491 154.825 273.491 153.936 273.046 153.158C271.07 149.204 272.457 146.01 274.313 142.932H274.491C275.38 141.71 276.38 140.265 277.047 138.709L279.714 132.707C280.105 131.827 279.915 130.946 279.732 130.094C279.498 129.01 279.274 127.972 280.27 127.039C281.684 125.836 282.783 124.319 283.883 122.801C284.511 121.934 285.139 121.067 285.826 120.259C287.493 118.369 286.938 117.036 285.271 115.48C284.525 114.787 283.523 114.477 282.572 114.183C281.54 113.864 280.568 113.564 280.047 112.812C278.819 110.881 278.076 111.584 277.325 112.293C277.125 112.482 276.924 112.672 276.714 112.812C275.936 113.368 275.047 114.146 274.602 115.035C272.824 119.147 269.601 121.148 265.267 121.926C262.711 122.371 259.377 127.483 260.489 128.706C262.156 130.484 260.155 131.929 259.822 132.04C258.063 132.68 257.627 134.067 257.19 135.457C257.019 135.999 256.849 136.542 256.599 137.042C256.377 137.597 256.043 138.487 256.932 138.153C260.572 136.97 260.04 138.544 259.483 140.19C259.36 140.554 259.236 140.923 259.155 141.265C259.051 141.784 259.044 142.303 259.134 142.821H259.044C259.155 143.155 259.377 143.488 259.711 143.821C260.377 144.488 260.822 145.155 259.933 145.822C259.266 146.378 258.599 146.822 257.821 147.267C257.044 147.823 256.043 147.6 255.488 146.934C255.154 146.489 254.932 146.044 255.043 145.711C255.336 144.736 255.286 143.847 255.12 143.043H255.488C254.938 141.76 254.086 140.552 253.243 139.358C253.064 139.104 252.885 138.851 252.71 138.598C251.794 137.289 251.237 135.776 250.684 134.272C249.828 131.942 248.98 129.636 246.82 128.15C243.041 125.594 240.263 122.593 240.596 117.702C240.596 116.924 240.485 115.924 239.374 115.813C238.374 115.702 237.596 116.035 237.151 117.036C237.088 117.194 237.02 117.353 236.952 117.512C236.543 118.465 236.135 119.417 236.707 120.37C237.968 122.299 237.743 124.277 237.521 126.239C237.41 127.216 237.3 128.19 237.374 129.15C237.485 130.818 236.485 131.151 235.151 131.151C233.817 131.151 232.595 130.373 232.817 129.039C233.337 126.438 232.007 126.369 230.286 126.28C230.168 126.274 230.049 126.268 229.928 126.261C229.527 126.245 229.124 126.24 228.721 126.236C226.223 126.206 223.745 126.177 221.926 123.593C221.26 122.704 219.482 122.148 218.037 123.26C217.937 123.34 217.84 123.431 217.746 123.519C217.318 123.923 216.937 124.282 216.481 123.371C216.39 123.219 216.258 123.076 216.125 122.932C215.77 122.548 215.41 122.158 215.814 121.592C216.037 121.259 216.222 120.889 216.411 120.51C216.79 119.752 217.185 118.962 217.926 118.369C218.279 118.067 218.769 118.13 219.2 118.186C219.718 118.253 220.148 118.309 220.148 117.702C220.069 116.826 219.247 116.692 218.461 116.564C218.15 116.513 217.844 116.463 217.592 116.369C216.671 115.95 215.749 115.91 214.779 115.868C214.463 115.854 214.142 115.84 213.814 115.813C209.609 115.3 205.404 114.598 201.111 113.881L200.034 113.701H199.923C197.256 112.145 194.477 111.367 192.366 114.257C190.699 116.591 188.921 115.924 187.143 115.035C185.142 113.923 184.476 109.033 186.254 107.255C187.698 105.921 189.588 105.476 191.366 107.588C192.366 108.922 193.477 108.144 194.366 106.81C196.478 103.587 196.144 100.475 193.255 97.9186C193.143 97.8251 193.031 97.7379 192.921 97.6527C192.38 97.2318 191.903 96.8611 191.81 96.0291C191.786 95.8857 191.778 95.7269 191.769 95.567C191.738 94.9834 191.706 94.3859 190.921 94.4731C190.143 94.4731 189.921 95.4734 190.032 96.1403C190.366 99.8081 187.81 101.253 185.254 102.698C184.926 102.88 184.592 103.041 184.267 103.198L184.266 103.199L184.265 103.199C182.613 103.997 181.213 104.673 182.142 107.366C182.475 108.144 181.364 108.922 180.475 109.255C179.031 109.922 177.586 110.7 176.142 111.478C175.998 111.574 175.832 111.754 175.673 111.926C175.465 112.152 175.267 112.367 175.141 112.367C174.525 112.104 174.814 111.562 175.017 111.181C175.07 111.081 175.118 110.992 175.141 110.923C175.799 109.196 175.057 107.773 174.357 106.429C174.111 105.957 173.869 105.494 173.696 105.032C173.277 104.124 172.289 104.357 171.253 104.6C170.64 104.744 170.011 104.892 169.473 104.81C169.271 104.769 169.054 104.788 168.838 104.806C168.461 104.838 168.089 104.87 167.806 104.587C166.618 103.176 165.132 103.353 163.679 103.527C162.959 103.613 162.246 103.698 161.583 103.587C158.889 103.066 158.438 104.786 157.997 106.465C157.874 106.933 157.752 107.398 157.582 107.811C157.034 109.236 156.053 109.147 154.852 109.038L154.804 109.033C153.359 108.922 153.137 108.144 153.026 106.921C152.915 104.365 152.693 101.698 152.47 99.1412C152.451 98.946 152.445 98.7303 152.439 98.5097C152.411 97.4738 152.38 96.3295 150.914 96.696C150.613 96.7508 150.238 96.7313 149.842 96.7108C148.629 96.648 147.22 96.5751 147.136 98.5855C147.099 99.2487 146.745 99.8875 146.393 100.522C145.683 101.802 144.982 103.064 146.914 104.476C147.342 104.797 146.637 105.324 146.187 105.66L146.136 105.699C145.247 106.588 144.136 106.699 143.246 106.032C141.802 104.921 141.913 103.142 142.135 101.586C142.202 100.989 142.466 100.392 142.73 99.7948C143.352 98.3914 143.973 96.988 142.024 95.5846C141.58 95.2511 141.913 94.0285 142.58 93.8062C143.828 93.3209 144.513 92.3165 145.203 91.3057C145.619 90.6962 146.037 90.0844 146.58 89.5827C146.686 89.4922 146.788 89.4016 146.887 89.3127C147.521 88.747 148.08 88.249 149.136 88.249C152.026 88.0267 152.915 86.3595 153.137 83.4697C153.256 82.245 153.472 80.9641 153.683 79.7219C154.064 77.4698 154.424 75.3438 154.137 73.9113C153.693 71.7995 155.471 70.7992 156.693 71.5772C157.138 71.9107 156.804 73.1333 156.471 73.5778C155.582 74.5781 154.915 75.6896 155.471 77.1345C155.969 78.4631 156.109 79.8469 156.247 81.2172C156.387 82.598 156.525 83.965 157.027 85.2481C157.447 86.3683 157.803 87.5228 158.159 88.6777C159.5 93.0225 160.843 97.373 165.584 99.9192C169.029 101.698 174.919 100.364 177.03 97.0294C178.252 95.0288 179.141 93.1394 179.697 90.8053C179.962 89.6134 179.635 88.7765 179.328 87.9892C179.119 87.455 178.919 86.9436 178.919 86.3595C178.808 82.2472 179.253 78.1348 179.919 74.0224C180.244 71.828 179.381 69.8714 178.546 67.9786C178.239 67.283 177.936 66.5959 177.697 65.9088C177.508 65.3178 177.324 64.8424 177.17 64.4464C176.603 62.9806 176.455 62.6005 178.03 61.463C178.586 61.0184 178.697 60.5739 178.475 59.907C178.355 59.6066 178.316 59.225 178.277 58.8434C178.171 57.8132 178.066 56.7829 176.363 57.3507C175.902 57.3968 176.13 56.3715 176.387 55.2114C176.75 53.5755 177.173 51.6716 175.808 52.1269C174.474 52.5714 173.807 52.6826 173.363 52.5714C173.252 52.5714 173.14 52.5714 173.029 52.4603C171.926 52.2396 170.725 52.2137 169.588 52.1891C169.007 52.1766 168.443 52.1644 167.917 52.1269C167.319 52.087 166.649 51.9326 165.995 51.7818C164.827 51.5125 163.709 51.2547 163.139 51.6823C162.573 52.0991 161.936 52.4442 161.293 52.7922C159.536 53.7434 157.737 54.717 157.249 57.2395C156.804 59.5736 155.471 61.7965 152.581 61.6853C148.47 61.5742 146.136 63.9082 144.247 67.0203C143.26 68.5993 141.923 69.2144 140.313 69.955C140.11 70.0484 139.902 70.1439 139.69 70.2435C138.959 70.6092 138.15 70.8894 137.327 71.1743C134.898 72.0151 132.352 72.8965 131.356 76.1342C130.911 77.6902 128.577 80.0243 127.244 79.9131C123.662 79.5151 123.287 81.4334 122.849 83.674C122.798 83.936 122.746 84.2024 122.687 84.4701C121.687 89.4716 120.687 90.0273 115.575 89.4716C109.018 88.9159 102.24 87.9155 95.5717 86.693C95.4328 86.6652 95.287 86.6165 95.1411 86.5679C94.7035 86.422 94.2659 86.2762 94.0159 86.693C93.9048 86.9152 94.2382 87.5821 94.4604 87.9155C94.6115 88.2429 94.8196 88.5589 95.0253 88.8712C95.7275 89.9372 96.4017 90.9608 94.6827 92.2502C94.127 92.6948 94.127 94.5843 94.905 95.5846C95.5162 96.2832 95.3727 96.9818 95.2293 97.6804C95.1901 97.871 95.151 98.0615 95.1272 98.252C95.1272 98.3137 95.1293 98.3797 95.1315 98.4475C95.1452 98.8688 95.1612 99.3635 94.6827 99.3635C94.2196 99.3635 94.1425 98.9776 94.0653 98.5916C94.0499 98.5145 94.0344 98.4373 94.0159 98.3632C92.5712 93.1394 85.3478 90.2496 81.236 93.6951C77.9021 96.4737 74.457 98.4743 70.0118 98.3632C69.0117 98.3632 68.2338 99.0301 68.2338 100.03C68.2338 101.92 67.7892 103.254 65.3444 102.587C64.5665 102.364 63.8997 102.698 63.6774 103.476C63.2543 104.534 62.4621 105.457 61.6662 106.385C59.9536 108.382 58.2245 110.398 60.1213 113.812C60.2891 114.148 60.1243 114.595 59.9319 115.116C59.6145 115.976 59.222 117.04 60.1213 118.147C62.6773 121.259 61.8993 123.927 58.3432 125.594C53.2312 127.928 49.5639 133.818 50.0084 139.042C50.1196 140.487 49.6751 141.71 48.3415 142.154C47.1191 142.599 45.7855 142.043 45.341 140.932C43.7852 136.486 42.2293 137.486 40.1179 140.598C39.79 141.036 39.3276 141.392 38.8499 141.761C38.4697 142.054 38.0796 142.355 37.7398 142.71H37.3396L37.2285 142.821C36.0061 144.266 36.4506 146.489 38.2287 147.045C43.5629 148.823 44.6742 154.158 40.5624 158.048L39.5622 159.048C38.0064 160.271 37.5619 161.716 38.7843 163.494C39.5622 164.606 40.0067 166.051 39.0066 167.051C36.2283 169.496 34.7836 171.83 37.3396 175.498C39.5622 178.61 41.118 181.944 41.5626 186.168C41.7442 187.984 42.3544 189.866 42.9802 191.796C43.5033 193.41 44.0372 195.057 44.3408 196.727C44.5631 197.949 43.8963 199.172 42.8961 199.172C40.3705 199.078 38.7897 200.56 37.2259 202.025C36.9321 202.3 36.6382 202.576 36.3395 202.84C35.5604 203.554 34.5917 203.851 33.6106 204.151C32.9123 204.366 32.2078 204.582 31.5609 204.951C31.0859 205.248 30.8647 204.657 30.6092 203.974C30.3864 203.378 30.1375 202.713 29.6717 202.506C27.6713 201.395 25.4487 200.283 23.115 200.283C22.1148 200.283 20.559 201.172 20.1145 202.173C19.6466 203.343 20.492 203.582 21.3068 203.813C21.6531 203.911 21.9939 204.007 22.226 204.173C22.7187 204.567 23.0366 205.049 23.4123 205.618C23.4601 205.691 23.5093 205.765 23.5595 205.84C24.1152 206.507 25.1153 207.841 25.0042 207.952C24.2379 208.649 23.9083 208.166 23.5774 207.682C23.3804 207.394 23.183 207.104 22.8927 207.063C21.7666 207.004 20.8934 206.439 20.0201 205.874C19.2561 205.379 18.492 204.885 17.5585 204.729C17.2052 204.641 16.9923 204.307 16.7872 203.985C16.4764 203.497 16.1836 203.038 15.447 203.506C14.558 204.062 14.4469 205.062 14.4469 206.285C14.4469 208.174 13.0022 209.619 11.113 208.952C9.33488 208.286 7.66793 208.174 6.00098 208.508C4.44516 208.841 3.66725 208.508 3.88951 206.841C4.00064 206.063 3.66725 205.062 3.1116 205.285C2.65337 205.488 2.17182 205.459 1.72037 205.431C1.18645 205.398 0.694644 205.368 0.333349 205.729C-0.333431 206.396 0.111089 207.396 0.888999 207.841C2.0892 208.641 1.66913 209.441 1.24906 210.242C1.20239 210.331 1.15571 210.42 1.11126 210.508C1.06134 210.598 1.01053 210.688 0.959629 210.778C0.443884 211.69 -0.0812217 212.619 0.222219 213.732C1.77804 219.289 2.0003 224.957 0.666739 230.626C0.635445 230.798 0.597541 230.968 0.560473 231.134C0.334287 232.148 0.139257 233.022 1.66691 233.404C3.36246 233.851 3.91144 235.229 4.46474 236.617C4.60046 236.958 4.73645 237.299 4.88968 237.628C5.26267 238.529 5.47048 239.527 5.67845 240.525C6.21407 243.095 6.75079 245.67 10.1128 246.631C10.335 246.742 10.6684 247.075 10.7796 247.409C10.9829 248.46 11.3931 249.49 11.805 250.524C12.7437 252.882 13.6917 255.264 12.2243 257.967C11.7457 258.829 12.3389 259.031 13.0807 259.283C13.2 259.324 13.3236 259.366 13.4467 259.412C14.813 259.933 15.7983 260.987 16.7819 262.039C17.4784 262.784 18.1739 263.527 19.0032 264.08H40.229C40.229 263.08 40.229 262.191 40.6735 261.413C41.1971 260.424 42.0252 260.653 42.9346 260.905C43.7625 261.134 44.6578 261.382 45.4521 260.746C49.5639 257.745 54.0091 258.412 58.2321 260.746C59.5776 261.503 60.4776 260.987 61.4138 260.45C61.7148 260.278 62.0194 260.103 62.3439 259.968C63.5652 259.434 63.2135 258.847 62.8736 258.279C62.7186 258.021 62.5661 257.766 62.5661 257.523C62.5661 257.335 62.5402 257.108 62.5133 256.873C62.4292 256.137 62.3365 255.327 63.0107 255.411C66.4557 255.745 66.4557 253.41 66.4557 251.188C66.4833 250.634 66.566 250.061 66.649 249.485C66.8994 247.748 67.1522 245.994 65.9 244.741C64.0108 242.963 64.0108 241.518 65.2332 239.629C65.7889 238.85 65.7889 238.072 65.3444 237.294C63.5663 233.849 65.7889 232.96 68.3449 232.404C68.5703 232.363 68.7958 232.337 69.0171 232.312C69.9955 232.2 70.8922 232.097 71.3454 230.737C72.5678 227.069 76.9019 224.624 80.4581 225.402C81.9027 225.735 82.5695 226.736 82.5695 228.292C82.5695 228.903 82.514 229.487 82.4584 230.07C82.4028 230.654 82.3473 231.237 82.3473 231.848C82.3473 233.404 83.4586 233.849 84.3476 232.626C84.4895 232.437 84.6282 232.247 84.7653 232.059L84.7674 232.056L84.7707 232.052L84.7722 232.05C86.2428 230.034 87.5352 228.262 90.682 230.292C91.0667 230.533 91.5763 230.253 92.1478 229.939C92.8968 229.528 93.7521 229.058 94.5716 229.625C96.683 231.181 99.0168 230.848 101.239 230.403C103.501 229.951 104.554 231.455 105.615 232.969C106.638 234.43 107.667 235.9 109.796 235.627C110.019 235.627 110.463 236.516 110.685 237.072C110.743 237.244 110.712 237.444 110.683 237.629C110.656 237.804 110.631 237.964 110.685 238.072C111.21 239.196 111.936 240.206 112.66 241.213C114.084 243.194 115.5 245.164 115.353 247.964C115.353 247.964 116.02 248.076 116.353 248.076C117.131 248.076 117.575 248.187 117.464 249.298C117.351 250.204 117.671 251.024 117.997 251.86C118.31 252.665 118.63 253.484 118.576 254.411C118.465 255.633 119.798 256.745 121.354 255.633C122.649 254.597 123.675 254.97 124.851 255.396C125.188 255.518 125.538 255.645 125.91 255.745C127.107 256.06 127.661 256.839 128.2 257.596C128.612 258.175 129.015 258.742 129.689 259.079C129.946 259.186 130.206 259.291 130.468 259.397C132.853 260.36 135.305 261.35 136.078 264.192H135.69C135.912 264.525 135.912 264.858 135.912 265.192C136.023 267.192 138.135 270.082 139.024 269.638C142.011 268.051 142.567 269.443 143.261 271.181C143.394 271.512 143.531 271.856 143.691 272.194C144.247 273.417 146.358 274.528 147.358 273.639C147.478 273.531 147.613 273.417 147.757 273.296C148.943 272.294 150.675 270.831 148.692 268.749C148.163 268.131 147.844 267.374 147.512 266.588C147.426 266.383 147.339 266.176 147.247 265.97C147.038 265.552 146.917 265.178 146.801 264.821L146.8 264.819C146.755 264.682 146.712 264.548 146.664 264.414H147.025C146.358 261.858 147.692 260.635 151.026 260.635L151.102 260.635C151.125 260.635 151.148 260.635 151.171 260.635L151.277 260.636H151.283C152.286 260.644 153.128 260.651 153.026 259.523C152.834 257.026 154.468 256.77 155.991 256.531C156.23 256.494 156.467 256.457 156.693 256.411C158.582 256.078 159.694 255.411 159.249 253.299C158.916 251.521 159.36 249.965 161.138 249.298C162.805 248.631 164.361 248.965 165.695 250.187C166.878 251.28 168.285 251.776 169.733 252.286C170.052 252.398 170.374 252.512 170.696 252.632C175.137 254.248 179.788 255.085 184.431 255.92C188.733 256.694 193.029 257.467 197.145 258.857C197.811 259.079 198.589 259.19 199.256 258.857C202.155 257.6 204.886 258.529 207.596 259.45C208.002 259.589 208.407 259.727 208.813 259.857C209.444 260.067 209.726 260.65 210.002 261.218C210.309 261.851 210.607 262.466 211.369 262.524C213.138 262.721 214.038 263.265 214.299 264.08H214.036C214.147 265.081 213.925 266.081 213.592 267.192C213.425 267.694 213.477 268.258 213.532 268.838C213.622 269.8 213.715 270.806 212.814 271.638C212.369 271.972 212.925 272.972 213.592 272.972C215.746 272.8 216.631 274.031 217.593 275.37C217.872 275.757 218.157 276.154 218.481 276.529C218.736 276.815 218.954 277.184 219.178 277.561C219.734 278.502 220.324 279.498 221.593 279.418C223.816 279.418 224.038 280.196 222.927 281.975C221.815 283.864 222.26 284.42 224.705 284.531C225.843 284.531 226.73 284.063 227.61 283.598C228.276 283.246 228.939 282.896 229.706 282.753C230.262 282.66 230.862 282.653 231.479 282.646C233.077 282.629 234.788 282.609 236.151 281.086C237.04 280.085 239.04 281.086 240.041 281.864C240.972 282.609 240.031 283.431 239.374 284.006C239.34 284.036 239.307 284.065 239.274 284.093C239.26 284.106 239.246 284.119 239.232 284.131C239.161 284.194 239.096 284.254 239.041 284.309C238.151 285.42 237.818 286.309 238.485 287.532C243.263 296.646 244.819 306.538 245.708 316.652C245.731 316.788 245.744 316.933 245.758 317.079C245.811 317.653 245.867 318.253 246.486 318.43C247.13 318.672 247.424 318.213 247.707 317.773C247.814 317.606 247.92 317.441 248.042 317.319C250.153 315.207 251.709 315.429 252.932 318.208C255.043 323.098 257.599 324.321 262.489 322.987C263.711 322.654 265.156 322.654 266.045 323.876C267.236 325.465 268.183 327.208 269.134 328.958C270.313 331.127 271.497 333.306 273.157 335.213C273.231 335.287 273.207 335.46 273.182 335.633C273.17 335.72 273.157 335.806 273.157 335.88C273.38 338.325 277.158 340.215 279.158 338.77C279.373 338.616 279.563 338.42 279.748 338.229C280.233 337.727 280.688 337.256 281.492 337.658C282.19 338.046 282.13 338.65 282.068 339.282C282.042 339.555 282.014 339.835 282.048 340.104C282.159 342.215 283.715 343.66 285.382 344.661C286.938 345.55 288.716 345.55 289.827 343.438C290.271 342.549 291.16 342.66 291.938 343.105C292.962 343.813 293.985 343.574 295.008 343.334C295.43 343.236 295.851 343.137 296.272 343.105C297.697 342.962 298.711 342.089 299.723 341.217C300.29 340.729 300.857 340.241 301.496 339.881C302.902 339.037 304.507 338.478 306.082 337.93C307.618 337.395 309.124 336.871 310.386 336.102C314.508 333.583 318 334.839 321.476 336.089C323.061 336.659 324.642 337.227 326.278 337.436C327.078 337.525 327.309 338.183 327.54 338.841C327.598 339.006 327.656 339.17 327.722 339.326C329.167 342.771 332.279 344.438 335.835 343.438C336.561 343.256 337.064 343.446 337.588 343.642C337.705 343.686 337.824 343.731 337.946 343.771C338.419 343.855 338.893 343.945 339.368 344.036L339.37 344.036C342.695 344.67 346.073 345.313 349.281 343.66C351.171 342.66 352.504 340.993 351.171 338.548C348.392 333.435 349.059 331.323 352.949 327.322C354.505 325.766 355.505 325.655 357.283 326.433C359.466 327.46 361.797 328.043 364.149 328.63C365.867 329.059 367.596 329.491 369.285 330.101L369.387 330.138C371.767 331.003 373.066 331.475 373.285 334.324C373.619 338.992 380.953 343.994 384.954 341.771C389.51 339.326 393.622 338.548 398.734 339.214C400.368 339.407 401.627 340.346 402.854 341.262C404.465 342.464 406.02 343.624 408.291 342.993C408.403 342.993 408.625 343.549 408.736 343.883C409.847 346.328 411.959 346.995 414.515 346.883C415.793 346.828 417.071 346.883 418.349 346.939C419.627 346.995 420.905 347.05 422.183 346.995C422.599 346.995 423.03 347.029 423.461 347.064C424.753 347.168 426.044 347.272 426.961 346.439C429.753 344.045 432.993 343.084 436.279 342.108C436.654 341.997 437.031 341.885 437.408 341.771C438.741 341.326 439.519 340.437 439.852 339.103C441.297 333.768 446.076 331.657 450.965 333.991C452.188 334.546 453.521 334.991 454.855 333.991C456.855 332.657 458.744 332.323 460.856 333.991C462.856 335.547 465.968 335.436 467.413 334.435C469.327 333.079 470.841 331.093 472.364 329.093C472.964 328.307 473.564 327.519 474.192 326.766C474.303 326.544 474.303 326.322 474.192 326.099C472.346 324.253 472.876 322.234 473.397 320.249C473.597 319.485 473.796 318.727 473.858 317.986C473.893 317.585 473.922 317.181 473.952 316.776C474.11 314.598 474.272 312.379 475.303 310.317C477.525 305.982 476.747 303.648 472.302 301.647C471.969 301.536 471.747 301.425 471.858 300.981C472.136 300.388 472.339 299.741 472.54 299.098C472.98 297.689 473.415 296.297 474.636 295.534C478.036 293.434 481.525 291.694 485.105 289.909C485.504 289.71 485.904 289.511 486.305 289.31C487.305 288.866 488.305 288.866 489.527 289.088C490.045 289.203 490.607 289.4 491.183 289.602C492.833 290.18 494.597 290.797 495.751 289.644C497.208 288.277 497.919 288.703 498.863 289.268C499.07 289.393 499.289 289.524 499.529 289.644C503.085 291.422 505.752 293.978 507.975 297.313C509.518 299.58 511.543 301.428 513.576 303.284C516.229 305.706 518.897 308.142 520.533 311.539C521.311 313.207 523.2 313.985 525.089 313.207C529.312 311.428 533.201 312.095 537.202 313.873C537.758 314.096 538.425 314.207 539.091 314.207C541.203 314.429 543.648 316.541 543.981 318.653C544.203 320.431 548.204 322.876 549.427 321.876C550.386 321.044 551.529 320.618 552.665 320.194C553.504 319.881 554.339 319.569 555.094 319.097C555.28 318.986 555.475 318.88 555.673 318.774L555.675 318.773C556.656 318.243 557.687 317.687 557.872 316.207C558.224 313.467 560.04 311.704 561.863 309.936C562.923 308.907 563.986 307.876 564.762 306.649C565.096 306.204 566.207 304.871 566.429 306.427C566.543 307.302 567.1 308.099 567.659 308.898C568.731 310.433 569.809 311.976 567.763 314.096C567.571 314.287 567.71 314.81 567.823 315.235L567.824 315.238C567.842 315.305 567.859 315.369 567.874 315.429C569.652 321.542 570.763 327.655 570.541 334.102C570.43 335.991 570.208 336.214 568.763 336.102C563.207 335.547 560.984 339.548 559.206 343.549C558.295 345.735 559.474 347.772 560.602 349.721C560.851 350.15 561.097 350.575 561.317 350.996C562.095 352.552 563.429 353.774 564.762 354.997L564.796 355.026C566.449 356.458 567.856 357.678 565.207 359.665C564.429 360.221 564.096 361.888 565.429 362.221C566.001 362.385 566.497 362.713 566.985 363.036C567.825 363.591 568.639 364.129 569.763 363.777C570.097 363.666 570.319 363.222 569.986 362.888C568.637 361.475 569.515 360.73 570.389 359.989C571.028 359.447 571.665 358.907 571.43 358.109C571.319 357.887 572.097 357.22 572.319 357.998C572.986 360.221 573.431 359.221 573.875 357.998C573.928 357.892 573.968 357.749 574.009 357.603L574.01 357.601C574.142 357.131 574.283 356.627 574.875 357.22C576.812 359.073 578.621 358.054 580.206 357.161C580.713 356.876 581.196 356.604 581.654 356.442C586.099 355.108 591.767 343.883 591.434 338.659C591.122 333.873 591.978 329.088 592.818 324.394L592.822 324.368L592.827 324.342C592.881 324.038 592.936 323.735 592.989 323.432C593.091 322.823 593.196 322.215 593.301 321.606C594.003 317.543 594.71 313.458 594.323 309.205C594.255 308.355 594.183 307.503 594.111 306.65L594.109 306.631C593.585 300.465 593.055 294.233 594.323 288.088C594.768 285.754 593.545 283.309 592.545 281.308C590.656 277.084 588.322 273.083 585.544 269.304C584.398 267.741 583.545 266.081 582.985 264.414H583.655C582.804 261.674 582.436 258.693 582.072 255.745C582.034 255.437 581.995 255.129 581.957 254.822C581.93 254.61 581.904 254.399 581.876 254.189C581.876 253.966 581.765 253.188 581.654 252.855C581.568 252.682 581.415 252.71 581.299 252.732C581.265 252.738 581.235 252.744 581.21 252.744C579.477 253.162 578.868 251.941 578.261 250.723C577.74 249.676 577.219 248.631 575.987 248.631C576.718 245.603 574.701 245.616 572.796 245.629H572.793C572.671 245.63 572.55 245.63 572.43 245.63C570.319 245.519 568.319 245.186 566.429 243.852C565.318 243.074 563.429 242.407 562.54 242.963C562.055 243.309 561.624 243.71 561.196 244.107C560.252 244.984 559.326 245.845 557.872 246.075C557.916 246.206 557.925 246.338 557.934 246.463C557.948 246.654 557.96 246.829 558.095 246.964C559.671 248.756 558.891 250.225 558.108 251.697C557.677 252.508 557.245 253.32 557.206 254.189C557.206 254.33 556.891 254.471 556.576 254.613C556.396 254.694 556.216 254.775 556.094 254.855C556.052 254.688 555.995 254.521 555.939 254.359C555.847 254.092 555.761 253.841 555.761 253.633C555.977 252.608 555.277 252.055 554.562 251.49C553.804 250.89 553.03 250.277 553.316 249.076C553.427 248.854 552.316 248.965 551.982 249.52C551.205 250.521 550.871 251.521 551.649 252.744C551.741 252.896 551.916 253.04 552.092 253.185C552.558 253.569 553.031 253.957 551.982 254.522C551.09 254.928 550.967 254.385 550.837 253.803C550.788 253.588 550.739 253.368 550.649 253.188L550.579 253.065L550.466 252.868C549.622 251.381 548.662 249.69 547.315 248.965C546.458 248.497 545.764 249.396 545.081 250.282C544.791 250.659 544.502 251.033 544.203 251.299C542.981 252.41 541.203 251.966 539.98 251.299C538.98 250.743 539.647 249.298 540.203 248.52C541.307 246.863 541.667 245.002 542.029 243.125C542.322 241.603 542.618 240.071 543.314 238.628C544.59 235.875 544.689 232.918 544.789 229.955C544.854 228.014 544.919 226.071 545.315 224.179C545.466 223.423 545.627 222.672 545.788 221.923C546.691 217.722 547.575 213.609 546.537 209.175C546.374 208.602 546.691 207.909 547.004 207.229L547.007 207.222L547.009 207.217C547.119 206.977 547.228 206.738 547.315 206.507C547.648 205.507 547.982 204.507 547.871 203.395C547.204 196.727 553.538 189.502 560.428 188.946C561.317 188.835 561.873 188.057 561.762 187.613C560.812 184.848 562.413 184.434 564.008 184.021C564.465 183.903 564.922 183.785 565.318 183.611C565.874 183.389 566.652 183.056 566.652 182.611C566.985 180.61 567.985 179.944 570.097 180.055C571.541 180.166 571.764 178.832 570.763 177.61C569.096 175.609 570.097 173.497 572.542 172.719C572.957 172.581 573.427 172.518 573.907 172.454C575.357 172.261 576.903 172.056 577.32 169.718C577.431 168.829 579.543 169.385 580.432 169.829C581.145 170.284 580.799 170.435 580.386 170.615C580.092 170.743 579.765 170.886 579.765 171.163C579.811 171.528 579.613 171.912 579.425 172.276C579.156 172.798 578.907 173.281 579.432 173.608C580.21 174.164 581.654 174.609 582.654 173.72C582.798 173.594 582.953 173.471 583.11 173.347C583.927 172.7 584.805 172.006 584.432 170.607C584.411 170.499 584.377 170.387 584.343 170.276C584.203 169.818 584.071 169.385 584.877 169.385C586.957 169.545 586.964 168.38 586.97 167.217C586.973 166.765 586.975 166.313 587.1 165.939C587.18 165.699 587.13 165.371 587.08 165.046C586.992 164.469 586.905 163.899 587.544 163.828C589.072 163.758 589.688 162.778 590.315 161.781C590.692 161.182 591.072 160.577 591.656 160.16C591.743 160.09 591.844 160.018 591.949 159.942L591.951 159.941L591.952 159.94C592.521 159.531 593.235 159.019 592.767 158.27C592.212 157.27 590.878 156.825 589.989 157.492C586.937 159.472 586.273 157.655 585.633 155.906C585.411 155.298 585.192 154.699 584.877 154.269C584.445 153.664 584.483 152.791 584.522 151.91L584.522 151.907C584.533 151.656 584.544 151.404 584.544 151.157C584.766 148.267 584.432 145.489 583.543 142.821H583.281C582.849 141.642 582.412 140.565 581.765 139.487C581.543 139.153 581.543 138.598 581.543 138.153C581.21 135.152 584.766 129.817 587.766 128.595C588.655 128.261 589.433 127.594 588.767 126.372C588.544 125.927 588.322 125.371 588.989 125.26C589.322 125.149 589.878 125.594 589.989 125.927C590.433 126.705 590.656 127.594 590.878 128.483C591.545 130.595 593.101 131.373 594.879 130.484C595.516 130.13 595.522 130.498 595.528 130.897C595.532 131.125 595.536 131.363 595.657 131.484C595.749 131.577 595.841 131.683 595.936 131.793C596.3 132.213 596.707 132.684 597.324 132.596C598.006 132.459 597.934 132.072 597.854 131.638C597.804 131.366 597.75 131.075 597.879 130.818C597.924 130.706 597.973 130.6 598.021 130.493C598.217 130.066 598.413 129.639 598.324 128.928C598.201 127.855 597.876 126.782 597.55 125.709C596.695 122.892 595.841 120.075 598.657 117.258C599.102 116.813 598.99 115.257 597.101 114.813C593.767 114.146 591.878 109.922 593.212 106.921C593.656 105.921 594.545 105.699 595.212 105.81C595.963 105.96 595.699 106.364 595.449 106.747C595.329 106.931 595.212 107.11 595.212 107.255C595.212 108.7 595.323 109.811 596.768 110.478C597.942 110.989 598.601 111.992 599.271 113.014C600.059 114.216 600.865 115.443 602.547 115.924C603.213 116.146 604.658 119.592 603.991 122.371C603.211 126.131 604.288 129.711 605.371 133.312C605.984 135.351 606.599 137.397 606.881 139.487C606.952 140.201 607.115 140.87 607.282 141.551L607.282 141.553C607.375 141.931 607.468 142.314 607.547 142.71H632.162C631.869 142.722 632.425 142.722 632.162 142.71C630.023 142.61 628.823 141.688 628.329 139.709Z" fill="url(#paint0_linear_1494_197)"/>
<path d="M245.708 102.142C247.264 101.698 247.153 101.142 246.708 99.9192C246.264 98.9189 246.153 97.8075 246.153 96.8072C246.153 94.2244 247.305 91.8887 248.406 89.6582C248.584 89.297 248.761 88.9386 248.931 88.5824C249.003 88.3671 249.121 88.1518 249.255 87.9066C249.329 87.772 249.408 87.6285 249.487 87.471C250.154 86.2484 251.265 84.6923 253.043 84.2478C256.821 83.1363 260.489 81.4691 263.711 79.4685C267.432 77.2205 271.477 76.1078 275.506 74.9993C277.254 74.5184 279 74.0383 280.714 73.4667C284.118 72.3686 287.847 73.1149 290.615 73.6689L290.716 73.689C291.732 73.6137 292.646 73.5639 293.489 73.518C295.134 73.4285 296.505 73.3538 297.828 73.1333C300.607 72.6887 303.162 70.1323 302.607 68.0206C301.94 65.4643 299.495 65.3531 297.717 65.9088C293.272 67.2426 289.049 68.1317 285.159 64.4639C285.048 64.3528 284.715 64.3528 284.493 64.3528C280.492 64.0194 276.491 64.0194 272.602 65.4643C271.713 65.7977 270.157 66.1311 269.601 65.6865C268.157 64.4639 267.379 65.4643 266.823 66.3534C264.823 69.3543 261.822 70.6881 258.599 71.9107C258.206 72.0513 257.72 72.0994 257.222 72.1486C255.753 72.2939 254.184 72.4492 254.599 75.0227C254.71 75.4673 254.043 75.6896 253.487 75.5784C250.154 75.4673 247.264 76.1342 245.375 79.3574C244.708 80.4688 243.375 81.2468 242.041 80.8023C238.596 79.9131 237.374 82.136 237.04 84.5812C236.485 88.1378 237.485 91.5833 238.707 95.0288C239.293 96.591 240.45 97.6576 241.554 98.6751C242.336 99.3951 243.09 100.091 243.597 100.92C243.754 101.13 243.862 101.315 243.956 101.475C244.06 101.654 244.146 101.803 244.264 101.92C244.597 102.364 244.93 102.364 245.708 102.142Z" fill="url(#paint1_linear_1494_197)"/>
<path d="M607.547 162.605C606.547 162.383 606.103 161.716 606.547 161.16C610.77 155.882 609.37 150.69 607.881 145.6C607.646 144.796 607.76 143.513 607.547 142.71H632.162C632.427 142.71 633.082 143.291 633.359 143.318C633.663 143.347 633.981 143.377 634.33 143.377C636.33 143.377 638.553 144.6 639.442 146.934C639.886 148.156 639.108 148.378 638.219 148.601C636.886 148.934 636.108 149.601 636.33 151.046C636.775 153.936 640.22 157.381 643.22 157.603C644.998 157.715 645.887 158.381 646.554 160.049C647.19 161.638 646.311 162.621 645.457 163.576L645.434 163.602L645.332 163.716C642.442 166.606 642.998 172.163 646.443 174.275C646.549 174.381 646.729 174.436 646.902 174.489C647.093 174.548 647.274 174.603 647.332 174.72C647.474 175.144 648.043 175.422 648.628 175.708C649.881 176.321 651.206 176.968 648.554 179.166C646.554 180.944 646.999 184.834 649.555 186.723C653.333 189.391 654.333 192.948 654.222 197.171C654.152 198.503 654.391 199.878 654.633 201.27L654.634 201.273L654.634 201.275L654.634 201.277C654.776 202.091 654.918 202.91 655 203.729C655.111 204.396 655.222 205.729 653.889 204.84C652.818 204.142 651.728 203.483 650.635 202.821L650.63 202.818C649.115 201.902 647.593 200.982 646.11 199.95C641.897 196.916 637.364 194.33 632.852 191.754L632.85 191.754L632.833 191.744C631.4 190.926 629.969 190.109 628.551 189.28C621.439 185.167 616.327 179.277 611.548 172.941C610.658 171.727 610.711 170.217 610.762 168.756C610.781 168.212 610.8 167.675 610.77 167.162C610.659 164.717 610.103 163.05 607.547 162.605Z" fill="url(#paint2_linear_1494_197)"/>
<path d="M19.0159 266.899C18.6295 265.959 18.3615 264.814 19.0032 264.08H40.229C40.229 264.97 40.1179 266.081 39.7845 266.748C38.8954 268.637 37.673 270.638 36.1172 271.972C31.8943 275.639 31.672 280.641 31.5609 285.309C31.3893 289.427 29.0986 289.174 27.0403 288.947C26.4323 288.88 25.8445 288.815 25.3376 288.866C22.8927 289.199 20.6701 287.865 20.4479 284.976C20.3833 284.158 20.3438 283.336 20.3042 282.514C20.1394 279.09 19.9746 275.664 18.003 272.527C17.6696 271.972 17.6696 270.527 17.7808 270.527C20.1313 269.613 19.5663 268.238 19.0159 266.899Z" fill="url(#paint3_linear_1494_197)"/>
<path d="M632.774 280.863C632.765 280.831 632.756 280.798 632.747 280.766C632.739 280.738 632.732 280.711 632.724 280.683C632.707 280.619 632.69 280.555 632.673 280.491C632.502 279.84 632.334 279.201 631.774 278.641C629.825 276.935 627.46 276.06 625.113 275.192C625.06 275.172 625.005 275.152 624.952 275.132C624.142 274.832 623.336 274.531 622.551 274.195C622.438 274.147 622.326 274.099 622.216 274.053L622.18 274.038C622.139 274.021 622.099 274.004 622.058 273.987C620.714 273.422 619.565 272.94 618.772 271.749C617.894 270.433 617.264 269.045 616.742 267.607C616.386 266.605 616.083 265.583 615.781 264.562C615.433 263.389 615.086 262.217 614.66 261.079C613.66 258.523 616.66 256.189 619.327 256.856L623.661 258.19C623.775 258.212 623.894 258.249 624.011 258.286C624.467 258.427 624.907 258.563 624.995 257.856C625.106 257.523 624.55 257.078 624.217 256.856C623.682 256.428 623.018 256.309 622.35 256.189C621.63 256.06 620.904 255.93 620.327 255.411C618.208 253.581 615.922 251.98 613.64 250.382C610.658 248.294 607.684 246.212 605.103 243.63C604.193 242.687 603.122 241.878 602.05 241.068C599.456 239.109 596.86 237.147 596.546 233.293C596.478 232.684 595.998 232.446 595.558 232.227C595.276 232.087 595.009 231.955 594.879 231.737C594.021 230.451 592.734 229.634 591.457 228.823C589.754 227.742 588.068 226.672 587.433 224.513C587.297 223.971 586.831 223.718 586.387 223.477C586.103 223.323 585.828 223.174 585.655 222.957C584.231 221.355 583.662 222.39 583.15 223.322C583.022 223.554 582.898 223.78 582.766 223.957C581.772 225.402 582.906 225.599 583.724 225.742C583.913 225.775 584.085 225.805 584.21 225.847C587.655 226.736 587.322 228.625 585.655 230.848C584.655 232.182 584.321 233.516 585.655 234.516C588.1 236.405 589.1 238.962 590.1 241.629C590.1 241.675 590.157 241.817 590.224 241.982C590.319 242.216 590.433 242.499 590.433 242.629C591.434 244.852 593.101 246.186 595.657 246.742C597.324 247.075 599.102 248.076 599.546 249.52C600.335 252.413 602.134 254.683 603.933 256.952C605.175 258.52 606.417 260.087 607.325 261.858C607.607 262.44 607.87 263.042 608.134 263.646C608.213 263.828 608.293 264.01 608.373 264.192H608.325C609.229 266.245 610.193 268.238 612.025 269.497C612.7 269.986 613.49 270.377 614.438 270.638C614.482 270.638 614.523 270.651 614.559 270.675C614.62 270.759 614.67 270.866 614.716 270.968C614.735 271.008 614.753 271.047 614.771 271.083C615.596 273.305 616.712 275.383 617.828 277.461C618.665 279.019 619.502 280.578 620.216 282.197C620.35 282.482 620.477 282.762 620.6 283.035C621.181 284.321 621.704 285.478 622.68 286.428C622.906 286.66 623.156 286.88 623.439 287.087C623.475 287.111 623.511 287.137 623.547 287.164C623.736 287.34 623.919 287.544 624.101 287.747C624.602 288.304 625.098 288.856 625.71 288.829C625.967 288.845 626.244 288.762 626.551 288.532C627.57 287.768 627.031 286.808 626.522 285.902C626.365 285.623 626.211 285.349 626.106 285.087L625.948 284.691C624.987 282.296 624.934 282.164 625.884 281.53C625.941 281.494 625.998 281.458 626.056 281.422L626.087 281.403C627.016 280.819 627.971 280.219 628.906 280.196C629.662 280.215 630.405 280.628 631.107 281.752C631.131 281.792 631.155 281.833 631.18 281.875C631.449 282.332 631.792 282.915 632.312 282.871C632.452 282.883 632.605 282.849 632.774 282.753C633.338 282.377 633.107 281.763 632.888 281.179L632.887 281.176C632.847 281.07 632.808 280.965 632.774 280.863Z" fill="url(#paint4_linear_1494_197)"/>
<defs>
<linearGradient id="paint0_linear_1494_197" x1="28.8938" y1="161.16" x2="654.562" y2="288.388" gradientUnits="userSpaceOnUse">
<stop stop-color="#E3070D"/>
<stop offset="1" stop-color="#F08120"/>
</linearGradient>
<linearGradient id="paint1_linear_1494_197" x1="28.8938" y1="161.16" x2="654.562" y2="288.388" gradientUnits="userSpaceOnUse">
<stop stop-color="#E3070D"/>
<stop offset="1" stop-color="#F08120"/>
</linearGradient>
<linearGradient id="paint2_linear_1494_197" x1="28.8938" y1="161.16" x2="654.562" y2="288.388" gradientUnits="userSpaceOnUse">
<stop stop-color="#E3070D"/>
<stop offset="1" stop-color="#F08120"/>
</linearGradient>
<linearGradient id="paint3_linear_1494_197" x1="28.8938" y1="161.16" x2="654.562" y2="288.388" gradientUnits="userSpaceOnUse">
<stop stop-color="#E3070D"/>
<stop offset="1" stop-color="#F08120"/>
</linearGradient>
<linearGradient id="paint4_linear_1494_197" x1="28.8938" y1="161.16" x2="654.562" y2="288.388" gradientUnits="userSpaceOnUse">
<stop stop-color="#E3070D"/>
<stop offset="1" stop-color="#F08120"/>
</linearGradient>
</defs>
</svg>
